<?xml version="1.0" encoding="UTF-8"?>
<svg width="99px" height="99px" viewBox="0 0 99 99" version="1.1" xmlns="http://www.w3.org/2000/svg" xmlns:xlink="http://www.w3.org/1999/xlink">
    <title>Group 18</title>
    <g id="Disseny-v4" stroke="none" stroke-width="1" fill="none" fill-rule="evenodd">
        <g id="Artboard" transform="translate(-1131.000000, -1936.000000)">
            <g id="Group-18" transform="translate(1131.000000, 1936.000000)">
                <rect id="Rectangle-Copy-8" x="0" y="0" width="99" height="99"></rect>
                <path d="M59.9202246,56.6422558 C62.5362012,56.6422558 64.8420996,54.8666894 65.5274706,52.324541 C65.7089648,51.6527051 65.3109081,50.9611817 64.6390722,50.7803028 C63.9672363,50.594502 63.2757129,50.9968653 63.094834,51.6687012 C62.7053907,53.1132715 61.3998634,54.1222558 59.9202247,54.1222558 C58.42459,54.1222558 57.1209083,53.1181933 56.7493067,51.6810058 C56.5745801,51.0079394 55.8885938,50.6025 55.2136817,50.7766113 C54.54,50.9507227 54.1351759,51.6385547 54.3092872,52.3122363 C54.9688183,54.8617676 57.2759472,56.6422558 59.9202246,56.6422558 Z" id="Path" fill="#64B1A6" fill-rule="nonzero"></path>
                <path d="M39.0576269,56.6422558 C41.6736035,56.6422558 43.9795019,54.8666894 44.664873,52.324541 C44.8463672,51.6527051 44.4483105,50.9611817 43.7764746,50.7803028 C43.1052539,50.594502 42.4131153,50.9968653 42.2322363,51.6687012 C41.842793,53.1132715 40.5372657,54.1222558 39.057627,54.1222558 C37.5859863,54.1222558 36.2521583,53.0954297 35.886709,51.6810058 C35.7125977,51.0079394 35.0278419,50.6025 34.351084,50.7766113 C33.6774023,50.9507227 33.2725782,51.6385547 33.4466895,52.3122363 C34.1062206,54.8617676 36.4133496,56.6422558 39.0576269,56.6422558 Z" id="Path" fill="#64B1A6" fill-rule="nonzero"></path>
                <path d="M18.1587305,52.2150294 C18.1587305,55.5003809 20.5403028,58.2283301 23.7450587,58.8208009 C26.0288086,71.5327734 36.9362988,81 49.5,81 C62.0630859,81 72.9699609,71.5333887 75.2543262,58.8232618 C78.4172461,58.2326368 80.8412695,55.4616211 80.8412695,52.2150294 C80.8412695,48.6460548 77.9902734,45.7175391 74.4053026,45.5058985 C71.0683482,34.8341969 61.5637463,27.360945 50.7411583,26.824153 C50.7787645,25.075503 51.129525,22.3685488 52.5054198,21.1586134 C53.1870994,20.5599903 54.0958006,20.3840333 55.2795116,20.6233594 C55.9636523,20.7617872 56.6262597,20.3194337 56.7640722,19.6383692 C56.9025,18.9560743 56.4607618,18.2916211 55.779082,18.1538086 C53.3064551,17.653623 51.7271484,18.4841894 50.836289,19.270459 C49.6544237,20.312666 48.9948925,21.8316797 48.6331346,23.3223926 C48.3771971,23.0510743 48.0923436,22.7951368 47.7736522,22.5650391 C46.3795311,21.5566699 44.6759471,21.2336719 42.7108885,21.6095801 C42.0273631,21.7400097 41.578242,22.399541 41.7086717,23.0830664 C41.8391013,23.7665919 42.4992478,24.2144824 43.182158,24.0852833 C44.452617,23.8422657 45.4671385,24.0114551 46.2866307,24.5996192 C47.0981249,25.1819385 47.5887743,26.0844873 47.8772422,26.8402259 C37.212462,27.5316724 27.8918918,34.9600891 24.5946971,45.5071289 C21.0072657,45.7292285 18.1587305,48.6528222 18.1587305,52.2150294 Z M25.0333593,48.0135937 C25.066582,48.0135937 25.0991894,48.0135937 25.1305663,48.0135937 C25.2142381,48.0135937 25.2936034,48.0148243 25.3809667,48.0258984 C26.001123,48.1015722 26.5849804,47.7121289 26.7504785,47.108584 C29.6266993,36.6182227 38.9819532,29.2920118 49.5,29.2920118 C60.0180468,29.2920118 69.3733007,36.6182227 72.2495215,47.108584 C72.4150196,47.7121289 72.9976465,48.1009571 73.6190333,48.0258984 C73.7063965,48.0148241 73.7937599,48.0135937 73.8811231,48.0135937 C76.3014551,47.9803711 78.3212696,49.8636035 78.3212696,52.2150294 C78.3212696,54.4643262 76.4398828,56.3494044 74.1266016,56.4170801 C73.5144434,56.4349219 73.0031836,56.8908106 72.9164356,57.4974317 C71.2011621,69.4594336 61.134082,78.48 49.5,78.48 C37.865918,78.48 27.7988379,69.4594336 26.0835644,57.4974317 C25.9974316,56.894502 25.4910937,56.4392285 24.8820116,56.4170801 C22.5250487,56.3315625 20.6787304,54.4858594 20.6787304,52.2150294 C20.6787304,49.8980567 22.6320996,48.0135937 25.0333593,48.0135937 Z" id="Shape" fill="#64B1A6" fill-rule="nonzero"></path>
                <path d="M49.4587794,74.453291 C52.4408203,74.453291 54.8666895,72.2427539 54.8666895,69.5258789 C54.8666895,66.8090039 52.4408203,64.5984669 49.4587794,64.5984669 C46.4767384,64.5984669 44.0508692,66.8090039 44.0508692,69.5258789 C44.0508692,72.2427539 46.4767382,74.453291 49.4587794,74.453291 Z M49.4587794,67.1184669 C51.0239356,67.1184669 52.3466895,68.2209669 52.3466895,69.5258789 C52.3466895,70.8535547 51.0510059,71.933291 49.4587794,71.933291 C47.8665528,71.933291 46.5708692,70.8535547 46.5708692,69.5258789 C46.5708692,68.2209669 47.8936231,67.1184669 49.4587794,67.1184669 Z" id="Shape" fill="#64B1A6" fill-rule="nonzero"></path>
            </g>
        </g>
    </g>
</svg>