<?xml version="1.0" encoding="UTF-8"?>
<svg width="99px" height="99px" viewBox="0 0 99 99" version="1.1" xmlns="http://www.w3.org/2000/svg" xmlns:xlink="http://www.w3.org/1999/xlink">
    <title>Group 16</title>
    <g id="Disseny-v4" stroke="none" stroke-width="1" fill="none" fill-rule="evenodd">
        <g id="Artboard" transform="translate(-760.000000, -1936.000000)">
            <g id="Group-16" transform="translate(760.000000, 1936.000000)">
                <rect id="Rectangle-Copy-6" x="0" y="0" width="99" height="99"></rect>
                <path d="M75.5,75.9655172 L68.3275862,75.9655172 C66.7586207,75.9655172 65.4137931,74.6206897 65.4137931,73.0517241 L65.4137931,69.6896552 L33.5862069,69.6896552 L33.5862069,73.0517241 C33.5862069,74.6206897 32.2413793,75.9655172 30.6724138,75.9655172 L23.5,75.9655172 C21.9310345,75.9655172 20.5862069,74.6206897 20.5862069,73.0517241 L20.5862069,51.3103448 C20.5862069,47.7241379 23.5,44.8103448 27.0862069,44.8103448 L71.9137931,44.8103448 C75.5,44.8103448 78.4137931,47.7241379 78.4137931,51.3103448 L78.4137931,73.0517241 C78.4137931,74.6206897 77.0689655,75.9655172 75.5,75.9655172 Z M32.4655172,67.4482759 L66.5344828,67.4482759 C67.2068966,67.4482759 67.6551724,67.8965517 67.6551724,68.5689655 L67.6551724,73.0517241 C67.6551724,73.5 67.8793103,73.7241379 68.3275862,73.7241379 L75.5,73.7241379 C75.9482759,73.7241379 76.1724138,73.5 76.1724138,73.0517241 L76.1724138,51.3103448 C76.1724138,49.0689655 74.1551724,47.0517241 71.9137931,47.0517241 L27.0862069,47.0517241 C24.8448276,47.0517241 22.8275862,49.0689655 22.8275862,51.3103448 L22.8275862,73.0517241 C22.8275862,73.5 23.0517241,73.7241379 23.5,73.7241379 L30.6724138,73.7241379 C31.1206897,73.7241379 31.3448276,73.5 31.3448276,73.0517241 L31.3448276,68.5689655 C31.3448276,67.8965517 31.7931034,67.4482759 32.4655172,67.4482759 Z" id="Shape" fill="#56A99E" fill-rule="nonzero"></path>
                <path d="M58.4655172,64.5344828 L40.5344828,64.5344828 C39.862069,64.5344828 39.4137931,64.0862069 39.4137931,63.4137931 C39.4137931,62.7413793 39.862069,62.2931034 40.5344828,62.2931034 L58.4655172,62.2931034 C59.137931,62.2931034 59.5862069,62.7413793 59.5862069,63.4137931 C59.5862069,64.0862069 59.137931,64.5344828 58.4655172,64.5344828 Z" id="Path" fill="#56A99E" fill-rule="nonzero"></path>
                <path d="M32.0172414,60.2758621 C29.3275862,60.2758621 26.862069,58.0344828 26.862069,55.1206897 C26.862069,52.4310345 29.1034483,49.9655172 32.0172414,49.9655172 C34.9310345,49.9655172 37.1724138,52.2068966 37.1724138,55.1206897 C37.1724138,57.8103448 34.7068966,60.2758621 32.0172414,60.2758621 Z M32.0172414,52.2068966 C30.4482759,52.2068966 29.1034483,53.5517241 29.1034483,55.1206897 C29.1034483,56.6896552 30.4482759,58.0344828 32.0172414,58.0344828 C33.5862069,58.0344828 34.9310345,56.6896552 34.9310345,55.1206897 C34.9310345,53.5517241 33.5862069,52.2068966 32.0172414,52.2068966 Z" id="Shape" fill="#56A99E" fill-rule="nonzero"></path>
                <path d="M66.9827586,60.2758621 C64.2931034,60.2758621 61.8275862,58.0344828 61.8275862,55.1206897 C61.8275862,52.4310345 64.0689655,49.9655172 66.9827586,49.9655172 C69.8965517,49.9655172 72.137931,52.2068966 72.137931,55.1206897 C71.9137931,57.8103448 69.6724138,60.2758621 66.9827586,60.2758621 Z M66.9827586,52.2068966 C65.4137931,52.2068966 64.0689655,53.5517241 64.0689655,55.1206897 C64.0689655,56.6896552 65.4137931,58.0344828 66.9827586,58.0344828 C68.5517241,58.0344828 69.8965517,56.6896552 69.8965517,55.1206897 C69.8965517,53.5517241 68.5517241,52.2068966 66.9827586,52.2068966 Z" id="Shape" fill="#56A99E" fill-rule="nonzero"></path>
                <path d="M23.9482759,46.6034483 L20.8103448,46.6034483 C18.7931034,46.6034483 17,44.8103448 17,42.7931034 C17,40.7758621 18.7931034,38.9827586 20.8103448,38.9827586 L23.9482759,38.9827586 C25.2931034,38.9827586 26.4137931,39.6551724 27.0862069,40.7758621 C27.7586207,41.8965517 27.9827586,43.4655172 27.3103448,44.5862069 C26.637931,45.7068966 25.2931034,46.6034483 23.9482759,46.6034483 Z M20.8103448,41.2241379 C19.9137931,41.2241379 19.2413793,41.8965517 19.2413793,42.7931034 C19.2413793,43.6896552 19.9137931,44.362069 20.8103448,44.362069 L23.9482759,44.362069 C24.6206897,44.362069 25.0689655,44.137931 25.2931034,43.4655172 C25.5172414,43.0172414 25.5172414,42.3448276 25.2931034,41.8965517 L25.2931034,41.8965517 C25.0689655,41.4482759 24.6206897,41.2241379 23.9482759,41.2241379 L20.8103448,41.2241379 L20.8103448,41.2241379 Z" id="Shape" fill="#56A99E" fill-rule="nonzero"></path>
                <path d="M73.0344828,47.0517241 C72.5862069,47.0517241 72.137931,46.8275862 71.9137931,46.3793103 L66.0862069,32.2586207 C65.637931,30.9137931 64.2931034,30.2413793 62.9482759,30.2413793 L36.0517241,30.2413793 C34.7068966,30.2413793 33.362069,31.137931 32.9137931,32.2586207 L27.0862069,46.3793103 C26.862069,47.0517241 26.1896552,47.2758621 25.5172414,47.0517241 C24.8448276,46.8275862 24.6206897,46.1551724 24.8448276,45.4827586 L30.6724138,31.362069 C31.5689655,29.3448276 33.8103448,28 36.0517241,28 L62.9482759,28 C65.1896552,28 67.2068966,29.3448276 68.1034483,31.362069 L73.9310345,45.4827586 C74.1551724,46.1551724 73.9310345,46.6034483 73.2586207,47.0517241 C73.2586207,47.0517241 73.2586207,47.0517241 73.0344828,47.0517241 Z" id="Path" fill="#56A99E" fill-rule="nonzero"></path>
                <path d="M78.1896552,46.6034483 L75.0517241,46.6034483 C73.7068966,46.6034483 72.362069,45.9310345 71.6896552,44.5862069 C71.0172414,43.2413793 71.0172414,41.8965517 71.9137931,40.7758621 L71.9137931,40.7758621 C72.5862069,39.6551724 73.7068966,38.9827586 75.0517241,38.9827586 L78.1896552,38.9827586 C80.2068966,38.9827586 82,40.7758621 82,42.7931034 C82,44.8103448 80.2068966,46.6034483 78.1896552,46.6034483 Z M73.9310345,41.8965517 C73.7068966,42.3448276 73.4827586,43.0172414 73.9310345,43.4655172 C74.3793103,43.9137931 74.8275862,44.362069 75.2758621,44.362069 L78.4137931,44.362069 C79.3103448,44.362069 79.9827586,43.6896552 79.9827586,42.7931034 C79.9827586,41.8965517 79.3103448,41.2241379 78.4137931,41.2241379 L75.2758621,41.2241379 C74.6034483,41.2241379 74.1551724,41.4482759 73.9310345,41.8965517 L73.9310345,41.8965517 Z" id="Shape" fill="#56A99E" fill-rule="nonzero"></path>
            </g>
        </g>
    </g>
</svg>