<?xml version="1.0" encoding="UTF-8"?>
<svg width="99px" height="99px" viewBox="0 0 99 99" version="1.1" xmlns="http://www.w3.org/2000/svg" xmlns:xlink="http://www.w3.org/1999/xlink">
    <title>Group 14</title>
    <g id="Disseny-v4" stroke="none" stroke-width="1" fill="none" fill-rule="evenodd">
        <g id="Artboard" transform="translate(-356.000000, -1936.000000)">
            <g id="Group-14" transform="translate(356.000000, 1936.000000)">
                <rect id="Rectangle-Copy-6" x="0" y="0" width="99" height="99"></rect>
                <path d="M32.6819,43.8467 C36.4584,43.8467 39.5314,40.7737 39.5314,36.9972 C39.5314,33.2214 36.4577,30.1505 32.6819,30.1505 C28.9061,30.1505 25.8345,33.2221 25.8345,36.9972 C25.8345,40.7744 28.9061,43.8467 32.6819,43.8467 Z M32.6819,32.1819 C35.3377,32.1819 37.4993,34.3421 37.4993,36.9972 C37.4993,39.653 35.3377,41.8146 32.6819,41.8146 C30.0261,41.8146 27.8659,39.653 27.8659,36.9972 C27.8659,34.3421 30.0261,32.1819 32.6819,32.1819 Z" id="Shape" stroke="#64B1A6" stroke-width="0.5" fill="#64B1A6" fill-rule="nonzero"></path>
                <path d="M51.7023,48.4877 C56.2838,48.4877 60.0106,44.7616 60.0106,40.1801 C60.0106,35.6014 56.2838,31.8753 51.7023,31.8753 C47.1229,31.8753 43.3975,35.6014 43.3975,40.1801 C43.3975,44.7616 47.1229,48.4877 51.7023,48.4877 Z M51.7023,33.9074 C55.1624,33.9074 57.9785,36.7221 57.9785,40.1801 C57.9785,43.6409 55.1631,46.4556 51.7023,46.4556 C48.2443,46.4556 45.4296,43.6409 45.4296,40.1801 C45.4296,36.7221 48.2443,33.9074 51.7023,33.9074 Z" id="Shape" stroke="#64B1A6" stroke-width="0.5" fill="#64B1A6" fill-rule="nonzero"></path>
                <path d="M70.4791,46.3716 C64.7769,46.3716 59.8573,49.0568 58.409,52.7752 C56.3286,52.0535 53.9836,51.6433 51.5,51.6433 C49.0164,51.6433 46.6707,52.0535 44.591,52.7752 C43.142,49.0561 38.2224,46.3716 32.5202,46.3716 C25.6161,46.3716 20,50.2664 20,55.0544 L20,56.9703 C20,59.6443 22.1763,61.822 24.8517,61.822 L36.1203,61.822 C36.1119,61.9613 36.1056,62.1013 36.1056,62.2441 L36.1056,64.6395 C36.1056,67.8441 38.7124,70.4509 41.9163,70.4509 L61.0851,70.4509 C64.2897,70.4509 66.8965,67.8441 66.8965,64.6395 L66.8965,62.2441 C66.8965,62.1034 66.8888,61.9627 66.8818,61.822 L78.1504,61.822 C80.8244,61.822 83.0021,59.6464 83.0021,56.9703 L83.0021,55.0544 C83,50.2664 77.3839,46.3716 70.4791,46.3716 Z M37.0408,58.6013 C37.0408,58.6027 37.0408,58.6027 37.0401,58.6027 C36.9617,58.7539 36.8861,58.9051 36.8168,59.057 C36.7265,59.2516 36.646,59.4511 36.5725,59.6499 C36.555,59.6968 36.5305,59.7423 36.5151,59.7892 L24.8517,59.7892 C23.297,59.7892 22.0328,58.5243 22.0328,56.9703 L22.0328,55.0551 C22.0328,51.3885 26.7375,48.4037 32.5202,48.4037 C37.4181,48.4037 41.6076,50.5562 42.7185,53.5228 C40.0837,54.7751 38.1188,56.5538 37.0408,58.6013 Z M61.0851,68.4174 L41.9156,68.4174 C39.8317,68.4174 38.1377,66.722 38.1377,64.6395 L38.1377,62.2427 C38.1377,61.6743 38.2287,61.1206 38.3932,60.5844 C38.417,60.5102 38.4464,60.4353 38.4723,60.3618 C38.5269,60.2057 38.5906,60.0531 38.6585,59.8998 C38.7278,59.7458 38.8027,59.5932 38.8846,59.4448 C38.9364,59.3482 38.9903,59.2537 39.0477,59.1592 C39.1961,58.9156 39.3592,58.6776 39.5419,58.4445 C39.5503,58.4333 39.5573,58.4228 39.5657,58.4123 C40.636,57.0564 42.2649,55.8867 44.3187,55.0362 C44.3257,55.0334 44.3306,55.0278 44.3362,55.025 C46.4096,54.1766 48.8638,53.6775 51.4993,53.6775 C54.1348,53.6775 56.589,54.1766 58.6624,55.025 C58.6687,55.0278 58.6736,55.0334 58.6792,55.0362 C60.7337,55.8867 62.3633,57.0571 63.4322,58.4123 C63.4406,58.4228 63.4469,58.4333 63.4553,58.4438 C63.638,58.6776 63.8018,58.9177 63.9502,59.1592 C64.0076,59.2544 64.0608,59.3489 64.1126,59.4448 C64.1945,59.5953 64.2708,59.7472 64.3387,59.8998 C64.4066,60.0531 64.4703,60.2064 64.5256,60.3618 C64.5515,60.4353 64.5802,60.5102 64.6047,60.5844 C64.7685,61.122 64.8595,61.6757 64.8595,62.2427 L64.8595,64.6395 L64.8616009,64.6395 C64.863,66.7227 63.1683,68.4174 61.0851,68.4174 Z M78.149,59.7899 L66.4849,59.7899 C66.4695,59.743 66.4443,59.6968 66.4275,59.6506 C66.3547,59.4497 66.2735,59.2523 66.1832,59.0563 C66.1125,58.903 66.0383,58.7518 65.9599,58.602 C65.9592,58.602 65.9592,58.602 65.9592,58.6006 C64.8812,56.5524 62.9156,54.7737 60.2815,53.5214 C61.3924,50.5562 65.5819,48.4023 70.4791,48.4023 C76.2632,48.4023 80.9665,51.3864 80.9665,55.0537 L80.9665,56.9703 L80.9679003,56.9703 C80.9686,58.525 79.703,59.7899 78.149,59.7899 Z" id="Shape" stroke="#64B1A6" stroke-width="0.5" fill="#64B1A6" fill-rule="nonzero"></path>
                <path d="M70.6436,43.8467 C74.4208,43.8467 77.4931,40.7737 77.4931,36.9972 C77.4931,33.2214 74.4194,30.1505 70.6436,30.1505 C66.8664,30.1505 63.7954995,33.2221 63.7954995,36.9972 C63.7941,40.7744 66.8664,43.8467 70.6436,43.8467 Z M70.6436,32.1819 C73.3001,32.1819 75.4617,34.3421 75.4617,36.9972 C75.4617,39.653 73.3001,41.8146 70.6436,41.8146 C67.9871,41.8146 65.8269,39.653 65.8269,36.9972 C65.8269,34.3421 67.9871,32.1819 70.6436,32.1819 Z" id="Shape" stroke="#64B1A6" stroke-width="0.5" fill="#64B1A6" fill-rule="nonzero"></path>
            </g>
        </g>
    </g>
</svg>