<?xml version="1.0" encoding="UTF-8"?>
<svg width="99px" height="99px" viewBox="0 0 99 99" version="1.1" xmlns="http://www.w3.org/2000/svg" xmlns:xlink="http://www.w3.org/1999/xlink">
    <title>Group 17</title>
    <g id="Disseny-v4" stroke="none" stroke-width="1" fill="none" fill-rule="evenodd">
        <g id="Artboard" transform="translate(-959.000000, -1936.000000)">
            <g id="Group-17" transform="translate(959.000000, 1936.000000)">
                <rect id="Rectangle-Copy-7" x="0" y="0" width="99" height="99"></rect>
                <path d="M27.2406977,54.8337209 C27.8610465,57.475 28.7563953,59.930814 29.9011628,62.1244186 C31.1162791,64.4587209 32.6575581,66.5883721 34.4866279,68.455814 C37.9145349,71.9604651 42.2953488,74.6017442 47.872093,76.5203488 C48.2174419,76.6354651 48.5755814,76.6866279 48.9209302,76.6866279 C49.4581395,76.6866279 49.9761628,76.5715116 50.3534884,76.4244186 C51.8947674,75.8296512 53.6982558,75.1069767 55.425,74.2436047 C57.7593023,73.0860465 59.8761628,71.6918605 61.7116279,70.1122093 C63.6366279,68.455814 65.3186047,66.5436047 66.7,64.4267442 C68.075,62.3162791 69.1494186,60.0523256 69.9744186,57.5005814 C70.7034884,55.2494186 71.2215116,52.8255814 71.5604651,50.0947674 C72.1424419,45.4005814 72.0593023,40.6552326 71.9697674,36.0633721 C71.9505814,35.0465116 71.9313953,33.9976744 71.9186047,32.9616279 C71.8994186,31.2476744 70.6906977,30.0197674 68.9063953,29.9046512 C68.5546512,29.8790698 68.1965116,29.8598837 67.8511628,29.8406977 C66.7063953,29.7703488 65.5232558,29.7 64.3976744,29.552907 C59.3517442,28.9005814 55.022093,26.8988372 51.5366279,23.6116279 C50.9162791,23.0104651 50.0465116,22.3197674 48.9593023,22.3197674 C48.9593023,22.3197674 48.9593023,22.3197674 48.9593023,22.3197674 C47.8656977,22.3197674 47.0087209,23.0104651 46.3819767,23.6116279 C44.4633721,25.4598837 42.1610465,26.9372093 39.5453488,28.0116279 C36.6866279,29.1819767 33.4633721,29.7639535 29.4023256,29.847093 C28.3087209,29.8662791 27.502907,30.1604651 26.9273256,30.7360465 C26.3517442,31.3180233 26.0639535,32.1238372 26.0575581,33.2110465 C26.0447674,34.8226744 26.0511628,36.4598837 26.0511628,38.0459302 C26.0511628,38.7238372 26.0511628,39.3953488 26.0511628,40.0732558 C25.8656977,45.9122093 26.2494186,50.6063953 27.2406977,54.8337209 Z M28.5261628,38.0395349 C28.5261628,36.4598837 28.5197674,34.8290698 28.5325581,33.2238372 C28.5325581,32.7825581 28.6093023,32.5523256 28.6796512,32.4883721 C28.75,32.4180233 28.9930233,32.3348837 29.447093,32.3284884 C33.827907,32.2389535 37.3325581,31.5994186 40.4854651,30.3075581 C43.3953488,29.1180233 45.9534884,27.4680233 48.1023256,25.4023256 C48.697093,24.8331395 48.9209302,24.8011628 48.9593023,24.8011628 C48.9976744,24.8011628 49.2343023,24.8331395 49.8482558,25.4087209 C51.8180233,27.2697674 54.0436047,28.7662791 56.4546512,29.8726744 C58.7825581,30.9343023 61.3534884,31.6569767 64.0906977,32.0087209 C65.305814,32.1686047 66.5337209,32.2389535 67.7168605,32.3093023 C68.055814,32.3284884 68.4139535,32.3540698 68.752907,32.3732558 C69.4372093,32.4180233 69.4436047,32.7697674 69.4436047,32.980814 C69.4563953,34.0232558 69.4755814,35.0784884 69.4947674,36.1017442 C69.577907,40.6040698 69.6674419,45.2598837 69.1046512,49.7813953 C68.4331395,55.1982558 67.0069767,59.419186 64.627907,63.0645349 C62.1656977,66.825 58.6994186,69.8372093 54.325,72.0116279 C52.6877907,72.8238372 50.9482558,73.5209302 49.4581395,74.0965116 C49.1895349,74.1988372 48.8313953,74.2116279 48.677907,74.1604651 C43.472093,72.3697674 39.4110465,69.9267442 36.2581395,66.7098837 C33.002907,63.3843023 30.8476744,59.3104651 29.6581395,54.2581395 C28.7116279,50.2418605 28.3534884,45.7523256 28.5261628,40.1244186 L28.5261628,40.0860465 C28.5261628,39.4081395 28.5261628,38.7238372 28.5261628,38.0395349 Z" id="Shape" fill="#64B1A6" fill-rule="nonzero"></path>
            </g>
        </g>
    </g>
</svg>