<?xml version="1.0" encoding="UTF-8"?>
<svg width="99px" height="99px" viewBox="0 0 99 99" version="1.1" xmlns="http://www.w3.org/2000/svg" xmlns:xlink="http://www.w3.org/1999/xlink">
    <title>Group 13</title>
    <g id="Disseny-v4" stroke="none" stroke-width="1" fill="none" fill-rule="evenodd">
        <g id="Artboard" transform="translate(-159.000000, -1936.000000)">
            <g id="Group-13" transform="translate(159.000000, 1936.000000)">
                <rect id="Rectangle-Copy-6" x="0" y="0" width="99" height="99"></rect>
                <path d="M39.3808511,34.9042553 C39.9744681,34.9042553 40.5021277,34.7723404 41.0297872,34.5744681 L44.0638298,38.4659574 L55.9361702,38.4659574 L58.9702128,34.5744681 C59.4978723,34.7723404 60.0255319,34.9042553 60.6191489,34.9042553 C62.9276596,34.9042553 64.7744681,33.0574468 64.7744681,30.7489362 C64.7744681,28.4404255 62.9276596,26.593617 60.6191489,26.593617 C58.3106383,26.593617 56.4638298,28.4404255 56.4638298,30.7489362 C56.4638298,31.4744681 56.6617021,32.2 56.9914894,32.793617 L54.6170213,35.8276596 L45.3170213,35.8276596 L42.9425532,32.793617 C43.2723404,32.2 43.4702128,31.4744681 43.4702128,30.7489362 C43.4702128,28.4404255 41.6234043,26.593617 39.3148936,26.593617 C37.006383,26.593617 35.1595745,28.4404255 35.1595745,30.7489362 C35.1595745,33.0574468 37.0723404,34.9042553 39.3808511,34.9042553 Z M60.5531915,29.2319149 C61.4106383,29.2319149 62.0702128,29.8914894 62.0702128,30.7489362 C62.0702128,31.606383 61.4106383,32.2659574 60.5531915,32.2659574 C59.6957447,32.2659574 59.0361702,31.606383 59.0361702,30.7489362 C59.0361702,29.8914894 59.6957447,29.2319149 60.5531915,29.2319149 Z M39.3808511,29.2319149 C40.2382979,29.2319149 40.8978723,29.8914894 40.8978723,30.7489362 C40.8978723,31.606383 40.2382979,32.2659574 39.3808511,32.2659574 C38.5234043,32.2659574 37.8638298,31.606383 37.8638298,30.7489362 C37.8638298,29.8914894 38.5234043,29.2319149 39.3808511,29.2319149 Z" id="Shape" fill="#64B1A6" fill-rule="nonzero"></path>
                <path d="M62.0042553,48.4914894 L37.9297872,48.4914894 C37.4021277,46.8425532 35.8191489,45.6553191 33.9723404,45.6553191 C31.6638298,45.6553191 29.8170213,47.5021277 29.8170213,49.8106383 C29.8170213,52.1191489 31.6638298,53.9659574 33.9723404,53.9659574 C35.8191489,53.9659574 37.3361702,52.7787234 37.9297872,51.1297872 L62.0042553,51.1297872 C62.5319149,52.7787234 64.1148936,53.9659574 65.9617021,53.9659574 C68.2702128,53.9659574 70.1170213,52.1191489 70.1170213,49.8106383 C70.1170213,47.5021277 68.2702128,45.6553191 65.9617021,45.6553191 C64.1148936,45.6553191 62.5319149,46.8425532 62.0042553,48.4914894 Z M34.0382979,51.2617021 C33.1808511,51.2617021 32.5212766,50.6021277 32.5212766,49.7446809 C32.5212766,48.887234 33.1808511,48.2276596 34.0382979,48.2276596 C34.8957447,48.2276596 35.5553191,48.887234 35.5553191,49.7446809 C35.5553191,50.6021277 34.8297872,51.2617021 34.0382979,51.2617021 Z M67.412766,49.8106383 C67.412766,50.6680851 66.7531915,51.3276596 65.8957447,51.3276596 C65.0382979,51.3276596 64.3787234,50.6680851 64.3787234,49.8106383 C64.3787234,48.9531915 65.0382979,48.293617 65.8957447,48.293617 C66.7531915,48.293617 67.412766,48.9531915 67.412766,49.8106383 Z" id="Shape" fill="#64B1A6" fill-rule="nonzero"></path>
                <path d="M76.5148936,58.2531915 C74.6680851,58.2531915 73.1510638,59.4404255 72.5574468,61.0893617 L66.4893617,61.0893617 L61.1468085,54.7574468 L38.787234,54.7574468 L33.4446809,61.0893617 L27.3765957,61.0893617 C26.8489362,59.4404255 25.2659574,58.2531915 23.4191489,58.2531915 C21.1106383,58.2531915 19.2638298,60.1 19.2638298,62.4085106 C19.2638298,64.7170213 21.1106383,66.5638298 23.4191489,66.5638298 C25.2659574,66.5638298 26.7829787,65.3765957 27.3765957,63.7276596 L34.6319149,63.7276596 L39.9744681,57.3957447 L59.9595745,57.3957447 L65.3021277,63.7276596 L72.5574468,63.7276596 C73.0851064,65.3765957 74.6680851,66.5638298 76.5148936,66.5638298 C78.8234043,66.5638298 80.6702128,64.7170213 80.6702128,62.4085106 C80.6702128,60.1 78.8234043,58.2531915 76.5148936,58.2531915 Z M23.4191489,63.9255319 C22.5617021,63.9255319 21.9021277,63.2659574 21.9021277,62.4085106 C21.9021277,61.5510638 22.5617021,60.8914894 23.4191489,60.8914894 C24.1446809,60.8914894 24.6723404,61.3531915 24.8702128,62.012766 L24.8702128,62.8042553 C24.6723404,63.4638298 24.0787234,63.9255319 23.4191489,63.9255319 Z M76.5148936,63.9255319 C75.7893617,63.9255319 75.2617021,63.4638298 75.0638298,62.8042553 L75.0638298,62.012766 C75.2617021,61.3531915 75.7893617,60.8914894 76.5148936,60.8914894 C77.3723404,60.8914894 78.0319149,61.5510638 78.0319149,62.4085106 C78.0319149,63.2659574 77.3723404,63.9255319 76.5148936,63.9255319 Z" id="Shape" fill="#64B1A6" fill-rule="nonzero"></path>
                <path d="M60.5531915,64.5851064 C59.9595745,64.5851064 59.4319149,64.7170213 58.9042553,64.9148936 L55.8702128,61.0893617 L44.0638298,61.0893617 L41.0297872,64.9148936 C40.5021277,64.7170213 39.9744681,64.5851064 39.3808511,64.5851064 C37.0723404,64.5851064 35.2255319,66.4319149 35.2255319,68.7404255 C35.2255319,71.0489362 37.0723404,72.8957447 39.3808511,72.8957447 C41.6893617,72.8957447 43.5361702,71.0489362 43.5361702,68.7404255 C43.5361702,68.0148936 43.3382979,67.2893617 43.0085106,66.6957447 L45.3170213,63.7276596 L54.6170213,63.7276596 L56.9255319,66.6957447 C56.5957447,67.2893617 56.3978723,68.0148936 56.3978723,68.7404255 C56.3978723,71.0489362 58.2446809,72.8957447 60.5531915,72.8957447 C62.8617021,72.8957447 64.7085106,71.0489362 64.7085106,68.7404255 C64.7085106,66.4319149 62.8617021,64.5851064 60.5531915,64.5851064 Z M39.3808511,70.2574468 C38.5234043,70.2574468 37.8638298,69.5978723 37.8638298,68.7404255 C37.8638298,67.8829787 38.5234043,67.2234043 39.3808511,67.2234043 C40.2382979,67.2234043 40.8978723,67.8829787 40.8978723,68.7404255 C40.8978723,69.5978723 40.2382979,70.2574468 39.3808511,70.2574468 Z M60.5531915,70.2574468 C59.6957447,70.2574468 59.0361702,69.5978723 59.0361702,68.7404255 C59.0361702,67.8829787 59.6957447,67.2234043 60.5531915,67.2234043 C61.4106383,67.2234043 62.0702128,67.8829787 62.0702128,68.7404255 C62.0702128,69.5978723 61.4106383,70.2574468 60.5531915,70.2574468 Z" id="Shape" fill="#64B1A6" fill-rule="nonzero"></path>
                <path d="M23.4191489,41.3021277 C25.2659574,41.3021277 26.7829787,40.1148936 27.3765957,38.4659574 L33.4446809,38.4659574 L38.787234,44.7978723 L61.212766,44.7978723 L66.5553191,38.4659574 L72.6234043,38.4659574 C73.1510638,40.1148936 74.7340426,41.3021277 76.5808511,41.3021277 C78.8893617,41.3021277 80.7361702,39.4553191 80.7361702,37.1468085 C80.7361702,34.8382979 78.8893617,32.9914894 76.5808511,32.9914894 C74.7340426,32.9914894 73.2170213,34.1787234 72.6234043,35.8276596 L65.3680851,35.8276596 L60.0255319,42.1595745 L39.9744681,42.1595745 L34.6319149,35.8276596 L27.3765957,35.8276596 C26.8489362,34.1787234 25.2659574,32.9914894 23.4191489,32.9914894 C21.1106383,32.9914894 19.2638298,34.8382979 19.2638298,37.1468085 C19.2638298,39.4553191 21.1106383,41.3021277 23.4191489,41.3021277 Z M76.5148936,35.6297872 C77.3723404,35.6297872 78.0319149,36.2893617 78.0319149,37.1468085 C78.0319149,38.0042553 77.3723404,38.6638298 76.5148936,38.6638298 C75.7893617,38.6638298 75.2617021,38.2021277 75.0638298,37.5425532 L75.0638298,36.7510638 C75.2617021,36.0914894 75.8553191,35.6297872 76.5148936,35.6297872 Z M23.4191489,35.6297872 C24.1446809,35.6297872 24.6723404,36.0914894 24.8702128,36.7510638 L24.8702128,37.5425532 C24.6723404,38.2021277 24.1446809,38.6638298 23.4191489,38.6638298 C22.5617021,38.6638298 21.9021277,38.0042553 21.9021277,37.1468085 C21.9021277,36.2893617 22.5617021,35.6297872 23.4191489,35.6297872 Z" id="Shape" fill="#64B1A6" fill-rule="nonzero"></path>
            </g>
        </g>
    </g>
</svg>