<?xml version="1.0" encoding="UTF-8"?>
<svg width="99px" height="99px" viewBox="0 0 99 99" version="1.1" xmlns="http://www.w3.org/2000/svg" xmlns:xlink="http://www.w3.org/1999/xlink">
    <title>Group 6</title>
    <g id="Disseny-v4" stroke="none" stroke-width="1" fill="none" fill-rule="evenodd">
        <g id="Artboard" transform="translate(-156.000000, -1756.000000)">
            <g id="Group-6" transform="translate(156.000000, 1756.000000)">
                <rect id="Rectangle" x="0" y="0" width="99" height="99"></rect>
                <path d="M80,38.8829366 L77.8712395,41.0289855 C66.5279719,29.3643033 49.1099616,25.822299 34.0481348,32.1174267 C29.1786906,34.1957821 24.774667,37.2126309 21.0920578,40.9926118 L19,38.8829366 C22.9476558,34.8079059 27.6769825,31.5555008 32.910349,29.316651 C43.469095,24.8944497 55.3840939,24.8944497 65.94284,29.316651 C71.2286525,31.5385907 76.0092598,34.7919259 80,38.8829366 Z" id="Path" fill="#64B1A6" fill-rule="nonzero"></path>
                <path d="M71.1594203,46.8599846 L69.0857041,48.9855072 C63.8671818,43.570443 56.635054,40.5105199 49.0761615,40.5194426 C45.3263951,40.5231538 41.615342,41.2703678 38.1618656,42.7170168 C34.7310508,44.1910598 31.6278506,46.3212803 29.030238,48.9855072 L26.9565217,46.8599846 C29.7964874,43.8890257 33.2279596,41.533753 37.034055,39.9430297 C44.7105189,36.6759949 53.4054231,36.6759949 61.081887,39.9430297 C64.8879824,41.533753 68.3194546,43.8890257 71.1594203,46.8599846 L71.1594203,46.8599846 Z" id="Path" fill="#64B1A6" fill-rule="nonzero"></path>
                <path d="M63.2028986,54.8365477 L61.1114307,56.942029 C59.5325387,55.4161123 57.6630911,54.2039938 55.6075678,53.3734166 C51.4315502,51.6602571 46.7210843,51.6602571 42.5450666,53.3734166 C40.4895433,54.2039938 38.6200958,55.4161123 37.0412038,56.942029 L34.9130435,54.8365477 C36.7521911,52.9885202 38.9462442,51.5093528 41.3709092,50.4828406 C46.2900568,48.4863961 51.8258853,48.4863961 56.7450328,50.4828406 C59.1696978,51.5093528 61.3637509,52.9885202 63.2028986,54.8365477 L63.2028986,54.8365477 Z" id="Path" fill="#64B1A6" fill-rule="nonzero"></path>
                <path d="M49.2984002,72.8502559 C48.0399122,72.8212521 46.8145209,72.4403976 45.7603441,71.7506194 C43.5649176,70.2875273 42.4734645,67.6360066 43.0006603,65.0463841 C43.2221495,63.7128594 43.8385165,62.4769344 44.7696884,61.4991696 C45.735623,60.5524053 46.9727278,59.9322518 48.3077445,59.7255624 C49.5769754,59.4677726 50.893858,59.5911643 52.0934645,60.0802838 C53.273193,60.6011399 54.2885999,61.4351929 55.0300511,62.4923897 C55.7268695,63.5451173 56.1075511,64.7763014 56.1268485,66.0396042 C56.1871041,67.8699745 55.4858398,69.6431077 54.1908606,70.9347118 C52.8958815,72.226316 51.1237072,72.920175 49.2984002,72.8502559 Z M49.2984002,63.0244719 C48.6544951,63.0325552 48.0271086,63.2298918 47.4939916,63.5920262 C46.9479565,63.9350814 46.5262658,64.444907 46.2910525,65.0463841 C46.0453242,65.6530044 45.971851,66.3159753 46.0787691,66.9618799 C46.2280152,67.5913185 46.5461223,68.1678468 46.9986637,68.6290707 C47.4469211,69.0916129 48.0284494,69.4017371 48.6615501,69.5158743 C49.28988,69.6522704 49.9449178,69.5903144 50.5367198,69.3385136 C51.1391095,69.0909789 51.6557901,68.671631 52.0227034,68.1324607 C52.8685124,66.8201792 52.6920321,65.0950423 51.5981367,63.9822198 C50.9863101,63.3732342 50.160525,63.0293278 49.2984002,63.0244719 L49.2984002,63.0244719 Z" id="Shape" fill="#64B1A6" fill-rule="nonzero"></path>
            </g>
        </g>
    </g>
</svg>