<?xml version="1.0" encoding="UTF-8"?>
<svg width="99px" height="99px" viewBox="0 0 99 99" version="1.1" xmlns="http://www.w3.org/2000/svg" xmlns:xlink="http://www.w3.org/1999/xlink">
    <title>Group 15</title>
    <g id="Disseny-v4" stroke="none" stroke-width="1" fill="none" fill-rule="evenodd">
        <g id="Artboard" transform="translate(-559.000000, -1936.000000)">
            <g id="Group-15" transform="translate(559.000000, 1936.000000)">
                <rect id="Rectangle-Copy-6" x="0" y="0" width="99" height="99"></rect>
                <path d="M66.0064378,75.7725322 C61.6512876,75.7725322 57.2961373,75.7725322 52.9409871,75.7725322 C45.5171674,75.7725322 38.0933476,75.7725322 30.6695279,75.7725322 C28.4506438,75.7725322 26.2317597,75.7725322 24.0128755,75.7725322 C23.4935622,75.7725322 22.9152361,75.8315451 22.4195279,75.6190987 C21.5107296,75.2296137 21.2274678,74.3680258 21.2274678,73.47103 C21.2274678,72.6094421 21.2274678,71.7596567 21.2274678,70.8980687 C21.2274678,70.2961373 21.2156652,69.6824034 21.2274678,69.0804721 C21.2628755,68.0654506 22.2188841,67.2864807 23.1866953,67.2864807 C23.5997854,67.2864807 24.0128755,67.2864807 24.4377682,67.2864807 C26.8572961,67.2864807 29.276824,67.2864807 31.6963519,67.2864807 C39.167382,67.2864807 46.6502146,67.2864807 54.1212446,67.2864807 C57.0600858,67.2864807 59.998927,67.2864807 62.9495708,67.2864807 C63.7639485,67.2864807 64.5665236,67.2864807 65.3809013,67.2864807 C66.1834764,67.2864807 66.8798283,67.3218884 67.4935622,67.97103 C67.9774678,68.4785408 67.9656652,69.1630901 67.9656652,69.8122318 C67.9656652,70.5912017 67.9656652,71.3819742 67.9656652,72.1609442 C67.9656652,72.7038627 67.9656652,73.2585837 67.9656652,73.8015021 C67.9656652,74.8991416 67.0922747,75.7371245 66.0064378,75.7725322 C65.251073,75.7961373 65.2392704,76.9763948 66.0064378,76.9527897 C67.304721,76.917382 68.5085837,76.1502146 68.945279,74.8991416 C69.1813305,74.2263948 69.1341202,73.5064378 69.1341202,72.8100858 C69.1341202,71.9012876 69.1341202,70.9924893 69.1341202,70.083691 C69.1341202,69.3165236 69.1341202,68.6319742 68.8272532,67.9002146 C67.9420601,65.8111588 65.5107296,66.1298283 63.6813305,66.1298283 C57.1427039,66.1298283 50.6040773,66.1298283 44.0654506,66.1298283 C37.7156652,66.1298283 31.3658798,66.1298283 25.0160944,66.1298283 C24.4495708,66.1298283 23.8830472,66.1298283 23.3165236,66.1298283 C21.5343348,66.1180258 20.1180258,67.4399142 20.0590129,69.2457082 C20.0118026,70.6738197 20.0590129,72.1019313 20.0590129,73.5300429 C20.0590129,75.3594421 21.2864807,76.9527897 23.222103,76.9527897 C27.8959227,76.9527897 32.5697425,76.9527897 37.2435622,76.9527897 C44.6083691,76.9527897 51.973176,76.9527897 59.3379828,76.9527897 C61.556867,76.9527897 63.7875536,76.9527897 66.0064378,76.9527897 C66.7736052,76.9527897 66.7736052,75.7725322 66.0064378,75.7725322 Z" id="Path" stroke="#64B1A6" fill="#64B1A6" fill-rule="nonzero"></path>
                <path d="M59.2907725,56.7349785 C59.2907725,60.0633047 59.2907725,63.3798283 59.2907725,66.7081545 C59.4914163,66.5075107 59.6802575,66.3186695 59.8809013,66.1180258 C54.5697425,66.1180258 49.2585837,66.1180258 43.9592275,66.1180258 C39.0847639,66.1180258 34.2103004,66.1180258 29.3240343,66.1180258 C29.5246781,66.3186695 29.7135193,66.5075107 29.9141631,66.7081545 C29.9141631,63.3798283 29.9141631,60.0633047 29.9141631,56.7349785 C29.9141631,55.9796137 28.7339056,55.9796137 28.7339056,56.7349785 C28.7339056,60.0633047 28.7339056,63.3798283 28.7339056,66.7081545 C28.7339056,67.026824 29.0053648,67.2982833 29.3240343,67.2982833 C34.6351931,67.2982833 39.9463519,67.2982833 45.2457082,67.2982833 C50.1201717,67.2982833 54.9946352,67.2982833 59.8809013,67.2982833 C60.1995708,67.2982833 60.47103,67.026824 60.47103,66.7081545 C60.47103,63.3798283 60.47103,60.0633047 60.47103,56.7349785 C60.47103,55.9678112 59.2907725,55.9678112 59.2907725,56.7349785 L59.2907725,56.7349785 Z" id="Path" stroke="#64B1A6" fill="#64B1A6" fill-rule="nonzero"></path>
                <path d="M24.72103,43.1030043 C24.7446352,37.7800429 26.8809013,32.6813305 30.6577253,28.9399142 C34.4345494,25.1984979 39.639485,23.1684549 44.9388412,23.2274678 C50.2381974,23.2864807 55.3251073,25.5761803 58.9839056,29.3766094 C62.6781116,33.2124464 64.6255365,38.4645923 64.472103,43.7639485 C64.3304721,49.0515021 61.9581545,54.0912017 58.110515,57.6909871 C54.2156652,61.3379828 48.9281116,63.1909871 43.6169528,62.9549356 C38.5536481,62.7306867 33.7263948,60.4645923 30.2328326,56.8293991 C26.6920601,53.1587983 24.7446352,48.1899142 24.72103,43.1030043 C24.72103,42.3476395 23.5407725,42.3476395 23.5407725,43.1030043 C23.5643777,48.4141631 25.5708155,53.5364807 29.1706009,57.443133 C32.7349785,61.3143777 37.7274678,63.6630901 42.9560086,64.0997854 C48.27897,64.5482833 53.6019313,62.8369099 57.7682403,59.5321888 C61.8519313,56.2982833 64.6019313,51.4946352 65.4045064,46.3487124 C66.2306867,41.0611588 64.9796137,35.5729614 61.9463519,31.1587983 C58.9957082,26.8744635 54.4753219,23.7939914 49.4238197,22.5901288 C44.195279,21.3508584 38.6008584,22.2124464 33.9624464,24.9034335 C29.4774678,27.5118026 26.0901288,31.8079399 24.5085837,36.7296137 C23.8476395,38.7714592 23.5407725,40.943133 23.52897,43.0912017 C23.5407725,43.8701717 24.72103,43.8701717 24.72103,43.1030043 Z" id="Path" stroke="#64B1A6" fill="#64B1A6" fill-rule="nonzero"></path>
                <path d="M40.5954936,43.1030043 C40.6309013,40.8841202 42.389485,39.1373391 44.5965665,39.1019313 C46.8154506,39.0665236 48.5622318,40.9549356 48.5976395,43.1030043 C48.6330472,45.3218884 46.7446352,47.0686695 44.5965665,47.1040773 C42.389485,47.1512876 40.6309013,45.2628755 40.5954936,43.1030043 C40.583691,42.3476395 39.4034335,42.3358369 39.4151481,43.1030043 C39.4624464,45.8530043 41.5515021,48.0364807 44.277897,48.2725322 C46.9688841,48.5085837 49.4238197,46.3841202 49.7424893,43.7521459 C50.0729614,41.0611588 48.2317597,38.5236052 45.5643777,38.0042918 C42.8851931,37.4849785 40.276824,39.2199571 39.5686695,41.8165236 C39.4624464,42.2296137 39.4151481,42.666309 39.4151481,43.0912017 C39.4034335,43.8701717 40.583691,43.8701717 40.5954936,43.1030043 Z" id="Path" stroke="#64B1A6" fill="#64B1A6" fill-rule="nonzero"></path>
                <path d="M68.9688841,72.4914163 C69.9366953,71.5236052 70.916309,70.5439914 71.8841202,69.5761803 C73.9613734,67.498927 75.3422747,64.8079399 75.8143777,61.916309 C76.0150215,60.7006438 75.9914163,59.4967811 75.9914163,58.2693133 C75.9914163,56.6523605 75.9914163,55.0472103 75.9914163,53.4302575 C75.9914163,50.0193133 75.9914163,46.6083691 75.9914163,43.1974249 C75.9914163,42.4420601 74.8111588,42.4420601 74.8111588,43.1974249 C74.8111588,48.6620172 74.8111588,54.1148069 74.8111588,59.5793991 C74.8111588,62.6716738 73.7371245,65.6695279 71.7188841,68.0182403 C70.6212446,69.304721 69.3347639,70.4495708 68.1309013,71.6534335 C67.5997854,72.1963519 68.4377682,73.0225322 68.9688841,72.4914163 L68.9688841,72.4914163 Z" id="Path" stroke="#64B1A6" fill="#64B1A6" fill-rule="nonzero"></path>
                <path d="M72.5686695,39.7746781 C72.6040773,38.2049356 73.8315451,36.9774678 75.4012876,36.9420601 C76.97103,36.9066524 78.1984979,38.2639485 78.2339056,39.7746781 C78.2693133,41.3444206 76.9120172,42.5718884 75.4012876,42.6072961 C73.8315451,42.6427039 72.6040773,41.2972103 72.5686695,39.7746781 C72.556867,39.0193133 71.3766094,39.0075107 71.388412,39.7746781 C71.4356223,41.9935622 73.1824034,43.7403433 75.4012876,43.7875536 C77.6201717,43.8347639 79.3669528,41.9227468 79.4141631,39.7746781 C79.4613734,37.555794 77.5493562,35.8090129 75.4012876,35.7618026 C73.1824034,35.7145923 71.4356223,37.6266094 71.388412,39.7746781 C71.3766094,40.5418455 72.556867,40.5300429 72.5686695,39.7746781 Z" id="Path" stroke="#64B1A6" fill="#64B1A6" fill-rule="nonzero"></path>
            </g>
        </g>
    </g>
</svg>