<?xml version="1.0" encoding="UTF-8"?>
<svg width="99px" height="99px" viewBox="0 0 99 99" version="1.1" xmlns="http://www.w3.org/2000/svg" xmlns:xlink="http://www.w3.org/1999/xlink">
    <title>Group 12</title>
    <g id="Disseny-v4" stroke="none" stroke-width="1" fill="none" fill-rule="evenodd">
        <g id="Artboard" transform="translate(-1131.000000, -1756.000000)">
            <g id="Group-12" transform="translate(1131.000000, 1756.000000)">
                <rect id="Rectangle-Copy-5" x="0" y="0" width="99" height="99"></rect>
                <path d="M59.03125,40.0680239 C59.375,40.0680239 59.703125,39.9586489 60,39.7398989 C60.671875,39.2086489 60.796875,38.2242739 60.265625,37.5523989 C58.015625,34.6930239 58.015625,32.0211489 60.265625,29.1617739 C60.796875,28.4898989 60.671875,27.5055239 60,26.9742739 C59.328125,26.4430239 58.34375,26.5680239 57.8125,27.2398989 C54.671875,31.2398989 54.671875,35.4742739 57.8125,39.4898989 C58.109375,39.8492739 58.578125,40.0680239 59.03125,40.0680239 Z" id="Path" fill="#64B1A6" fill-rule="nonzero"></path>
                <path d="M47.765625,28.9898989 C47.78125,29.0367739 47.8125,29.0680239 47.84375,29.0992739 C49.8125,31.9742739 49.8125,34.7711489 47.84375,37.6461489 C47.359375,38.3648989 47.53125,39.3336489 48.25,39.8180239 C48.515625,40.0055239 48.828125,40.0992739 49.140625,40.0992739 C49.640625,40.0992739 50.125,39.8648989 50.4375,39.4273989 C53.15625,35.4742739 53.15625,31.2867739 50.4375,27.3336489 C50.390625,27.2555239 50.328125,27.1930239 50.265625,27.1148989 C50.234375,27.0523989 50.1875,26.9898989 50.140625,26.9273989 C48.03125,24.1930239 48.046875,21.5055239 50.1875,18.4586489 C50.6875,17.7555239 50.515625,16.7711489 49.8125,16.2867739 C49.109375,15.7867739 48.125,15.9586489 47.640625,16.6617739 C44.734375,20.8180239 44.75,25.0211489 47.6875,28.8336489 C47.6875,28.8961489 47.71875,28.9430239 47.765625,28.9898989 Z" id="Path" fill="#64B1A6" fill-rule="nonzero"></path>
                <path d="M34.28125,67.3805239 L34.28125,67.8492739 C34.28125,71.4586489 36.359375,73.5367739 39.96875,73.5367739 L66.0625,73.5367739 C69.671875,73.5367739 71.75,71.4586489 71.75,67.8492739 L71.75,43.8180239 C71.75,43.6773989 71.734375,43.5367739 71.6875,43.4117739 C71.71875,43.2867739 71.75,43.1461489 71.75,43.0055239 C71.75,42.1461489 71.046875,41.4430239 70.1875,41.4430239 L35.921875,41.4430239 C35.0625,41.4430239 34.359375,42.1461489 34.359375,43.0055239 C34.359375,43.0992739 34.375,43.1773989 34.390625,43.2711489 C34.328125,43.4430239 34.28125,43.6305239 34.28125,43.8336489 L34.28125,46.1617739 C31.5,46.2086489 29.078125,47.2242739 27.09375,49.2086489 C25.03125,51.2711489 24,53.8023989 24,56.7555239 C24,59.7086489 25.046875,62.2398989 27.09375,64.3023989 C29.0625,66.2555239 31.484375,67.3023989 34.28125,67.3805239 Z M66.0625,70.4117739 L39.96875,70.4117739 C38.078125,70.4117739 37.40625,69.7398989 37.40625,67.8492739 L37.40625,44.5680239 L68.625,44.5680239 L68.625,67.8648989 C68.625,69.7398989 67.953125,70.4117739 66.0625,70.4117739 Z M29.3125,51.4117739 C30.703125,50.0211489 32.34375,49.3180239 34.28125,49.2711489 L34.28125,64.2555239 C32.328125,64.1773989 30.6875,63.4586489 29.3125,62.0836489 C27.84375,60.6148989 27.125,58.8648989 27.125,56.7555239 C27.125,54.6305239 27.84375,52.8805239 29.3125,51.4117739 Z" id="Shape" fill="#64B1A6" fill-rule="nonzero"></path>
                <path d="M34.96875,76.2867739 C34.109375,76.2867739 33.40625,76.9898989 33.40625,77.8492739 C33.40625,78.7086489 34.109375,79.4117739 34.96875,79.4117739 L71.421875,79.4117739 C72.28125,79.4117739 72.984375,78.7086489 72.984375,77.8492739 C72.984375,76.9898989 72.28125,76.2867739 71.421875,76.2867739 L34.96875,76.2867739 Z" id="Path" fill="#64B1A6" fill-rule="nonzero"></path>
            </g>
        </g>
    </g>
</svg>