<?xml version="1.0" encoding="UTF-8"?>
<svg width="99px" height="99px" viewBox="0 0 99 99" version="1.1" xmlns="http://www.w3.org/2000/svg" xmlns:xlink="http://www.w3.org/1999/xlink">
    <title>Group 11</title>
    <g id="Disseny-v4" stroke="none" stroke-width="1" fill="none" fill-rule="evenodd">
        <g id="Artboard" transform="translate(-959.000000, -1756.000000)">
            <g id="Group-11" transform="translate(959.000000, 1756.000000)">
                <rect id="Rectangle-Copy-4" x="0" y="0" width="99" height="99"></rect>
                <path d="M45.5187613,22.0082708 C46.2267598,22.0860734 46.75801,22.6918702 46.742709,23.4039664 L46.742709,34.3980231 C46.742709,37.7080588 44.3710779,40.4975877 41.2456806,41.1404651 L41.2456806,47.0240033 C42.8376338,47.5967937 43.9941948,49.11117 43.9941948,50.8891152 L43.9941948,72.8772287 C43.9941948,75.1374694 42.131671,77 39.8714235,77 C37.611176,77 35.7486522,75.1374694 35.7486522,72.8772287 L35.7486522,50.8891152 C35.7486522,49.11117 36.9052132,47.5967937 38.4971664,47.0240033 L38.4971664,41.1404651 C35.3717691,40.4975877 33.000138,37.7080588 33.000138,34.3980231 L33.000138,23.4039664 C32.9931289,22.9083599 33.2535171,22.4473716 33.6815948,22.1975229 C34.1096725,21.9476742 34.6391177,21.9476742 35.0671954,22.1975229 C35.4952732,22.4473716 35.7556613,22.9083599 35.7486522,23.4039664 L35.7486522,34.3980231 C35.7486522,36.2224868 36.8817134,37.7509356 38.4971664,38.3060667 L38.4971664,23.4039664 C38.4886509,23.0081915 38.6512013,22.6279639 38.9431898,22.3606571 C39.2351784,22.0933502 39.6282466,21.9649253 40.0217329,22.0082708 C40.7297314,22.0860734 41.2609816,22.6918702 41.2456806,23.4039664 L41.2456806,38.3060667 C42.8611336,37.7509356 43.9941948,36.2224868 43.9941948,34.3980231 L43.9941948,23.4039664 C43.9856792,23.0081915 44.1482297,22.6279639 44.4402182,22.3606571 C44.7322068,22.0933502 45.125275,21.9649253 45.5187613,22.0082708 L45.5187613,22.0082708 Z M59.1110229,22.0297093 C61.185993,22.0297093 62.961918,23.2967743 64.1356504,25.0573351 C65.3093827,26.8179645 65.9823083,29.1249986 65.9823083,31.6495089 C65.9823083,34.1740192 65.3093827,36.4810533 64.1356504,38.2416828 C63.2298569,39.6003352 61.9690241,40.660712 60.48528,41.0760812 L60.48528,47.0240033 C62.0772331,47.5967937 63.2337941,49.11117 63.2337941,50.8891152 L63.2337941,72.8772287 C63.2337941,75.1374694 61.3712704,77 59.1110229,77 C56.8507753,77 54.9882516,75.1374694 54.9882516,72.8772287 L54.9882516,50.8891152 C54.9882516,49.11117 56.1448126,47.5967937 57.7367658,47.0240033 L57.7367658,41.0760812 C56.2530216,40.660712 54.9921888,39.6003352 54.0863953,38.2416828 C52.912663,36.4810533 52.2397374,34.1740192 52.2397374,31.6495089 C52.2397374,29.1249986 52.912663,26.8179645 54.0863953,25.0573351 C55.2601277,23.2967743 57.0360527,22.0297093 59.1110229,22.0297093 L59.1110229,22.0297093 Z M59.1110229,24.7782234 C58.1501217,24.7782234 57.1783226,25.3582287 56.3625087,26.5819359 C55.5466947,27.8056431 54.9882516,29.6201435 54.9882516,31.6495089 C54.9882516,33.6788744 55.5466947,35.4933747 56.3625087,36.717082 C57.1783226,37.9407892 58.1501217,38.5207875 59.1110229,38.5207875 C60.071924,38.5207875 61.0437231,37.9407892 61.8595371,36.717082 C62.675351,35.4933747 63.2337941,33.6788744 63.2337941,31.6495089 C63.2337941,29.6201435 62.675351,27.8056431 61.8595371,26.5819359 C61.0437231,25.3582287 60.071924,24.7782234 59.1110229,24.7782234 Z M59.1110229,49.5148581 C58.3259167,49.5148581 57.7367658,50.1040021 57.7367658,50.8891152 L57.7367658,72.8772287 C57.7367658,73.6623418 58.3259167,74.2514858 59.1110229,74.2514858 C59.8961291,74.2514858 60.48528,73.6623418 60.48528,72.8772287 L60.48528,50.8891152 C60.48528,50.1040021 59.8961291,49.5148581 59.1110229,49.5148581 L59.1110229,49.5148581 Z M39.8714235,49.5148581 C39.0863173,49.5148581 38.4971664,50.1040021 38.4971664,50.8891152 L38.4971664,72.8772287 C38.4971664,73.6623418 39.0863173,74.2514858 39.8714235,74.2514858 C40.6565297,74.2514858 41.2456806,73.6623418 41.2456806,72.8772287 L41.2456806,50.8891152 C41.2456806,50.1040021 40.6565297,49.5148581 39.8714235,49.5148581 L39.8714235,49.5148581 Z" id="Shape" fill="#64B1A6" fill-rule="nonzero"></path>
            </g>
        </g>
    </g>
</svg>