<?xml version="1.0" encoding="UTF-8"?>
<svg width="99px" height="99px" viewBox="0 0 99 99" version="1.1" xmlns="http://www.w3.org/2000/svg" xmlns:xlink="http://www.w3.org/1999/xlink">
    <title>Group 7</title>
    <g id="Disseny-v4" stroke="none" stroke-width="1" fill="none" fill-rule="evenodd">
        <g id="Artboard" transform="translate(-358.000000, -1756.000000)">
            <g id="Group-7" transform="translate(358.000000, 1756.000000)">
                <rect id="Rectangle" x="0" y="0" width="99" height="99"></rect>
                <path d="M77.4563798,75.880308 L24.5112348,75.880308 C21.2959048,75.880308 18.6807936,73.287931 18.6807936,70.1003859 L18.6807936,47.2933596 C18.6807936,44.1067315 21.2959167,41.51328 24.5112348,41.51328 L77.4563798,41.51328 C80.6717099,41.51328 83.2866622,44.1064323 83.2866622,47.2933596 L83.2866622,70.1003859 C83.2866622,73.2879428 80.671698,75.880308 77.4563798,75.880308 Z M24.5120288,43.0753318 C22.1668422,43.0753318 20.2583611,44.9673201 20.2583611,47.2930053 L20.2583611,70.0999136 C20.2583611,72.4259255 22.1668343,74.3175872 24.5120288,74.3175872 L77.4571738,74.318052 C79.8023604,74.318052 81.7115959,72.4259102 81.7115959,70.1003784 L81.7115959,47.2933521 C81.7115959,44.9684226 79.8023406,43.0756786 77.4571738,43.0756786 L24.5120288,43.0753686 L24.5120288,43.0753318 Z" id="Shape" stroke="#64B1A6" fill="#64B1A6"></path>
                <path d="M43.8941229,38.3889403 L23.4090893,38.3889403 C22.974095,38.3889403 22.6221001,38.0393643 22.6221001,37.607816 L22.6221001,23.5488385 C22.6221001,23.117755 22.9747219,22.7677142 23.4090893,22.7677142 L43.8941229,22.7680241 C44.3289624,22.7680241 44.6809573,23.1177552 44.6809573,23.5491484 L44.6809573,37.608126 C44.6809573,38.0393629 44.3283355,38.3889393 43.8941229,38.3889393 L43.8941229,38.3889403 Z M24.1969997,36.8270066 L43.1054185,36.8270066 L43.1054185,24.3299628 L24.1969997,24.3299628 L24.1969997,36.8270066 Z" id="Shape" stroke="#64B1A6" fill="#64B1A6"></path>
                <path d="M36.8024535,43.0752137 L30.4999648,43.0752137 C30.0638747,43.0752137 29.7118797,42.7254826 29.7118797,42.2939359 L29.7118797,37.60782 C29.7118797,37.176583 30.064658,36.8266957 30.4999648,36.8266957 L36.8024535,36.8270056 C37.2383847,36.8270056 37.5903836,37.1765816 37.5903836,37.6081299 L37.5903836,42.2944033 C37.5903836,42.7265691 37.2377618,43.0752166 36.8024535,43.0752166 L36.8024535,43.0752137 Z M31.2874384,41.5131226 L36.015615,41.5131226 L36.015615,38.3889403 L31.2874384,38.3889403 L31.2874384,41.5131226 Z" id="Shape" stroke="#64B1A6" fill="#64B1A6"></path>
                <path d="M82.4988313,49.3234945 C82.9347626,49.3234945 83.2867615,49.6732256 83.2867615,50.1046188 C83.2867615,50.5361667 82.9341397,50.8854321 82.4988313,50.8854321 L19.4699744,50.8854332 C19.0340431,50.8854332 18.6820442,50.5358572 18.6820442,50.1043089 C18.6820442,49.6729184 19.034666,49.3231846 19.4699744,49.3231846 L82.4988313,49.3234945 Z M63.9841691,21.2060954 C67.2417015,21.2060954 69.8930996,23.8338043 69.8930996,27.0638289 C69.8930996,29.112952 68.8265557,30.9195708 67.2147477,31.9667413 C71.5208809,33.456359 74.6189934,37.5235272 74.6189934,42.2939359 C74.6204002,42.7265662 74.2677782,43.0752137 73.8324727,43.0752137 C73.3965215,43.0752137 73.0445226,42.7254826 73.0445226,42.2939359 C73.0445226,37.1256022 68.8028844,32.9212317 63.5894,32.9212317 C58.3771465,32.9212317 54.1350318,37.1256022 54.1350318,42.2939359 C54.1350318,42.7251729 53.78241,43.0752137 53.3471016,43.0752137 C52.9121073,43.0752137 52.5591714,42.7254826 52.5591714,42.2939359 C52.5591714,37.3252252 55.9191565,33.1204803 60.5043893,31.7944138 C59.0323951,30.7291535 58.0744842,29.0053465 58.0744842,27.0638289 C58.0744842,23.8338161 60.7249295,21.2060954 63.9841691,21.2060954 Z M63.9841691,22.7680684 C61.5952199,22.7680684 59.6509401,24.6955383 59.6509401,27.0638682 C59.6509401,29.4323399 61.595204,31.359668 63.9841691,31.359668 C66.3732771,31.359668 68.317398,29.4323517 68.317398,27.0638682 C68.317398,24.6955541 66.3736027,22.7680684 63.9841691,22.7680684 Z" id="Combined-Shape" stroke="#64B1A6" fill="#64B1A6"></path>
                <path d="M82.4988313,69.6317861 L68.3173583,69.6317861 C67.8814271,69.6317861 67.5294282,69.2822101 67.5294282,68.8506618 C67.5294282,68.418496 67.8822064,68.0695375 68.3173583,68.0695375 L82.4988313,68.0698474 C82.9347626,68.0698474 83.2867615,68.4195785 83.2867615,68.8509717 C83.2867615,69.2822087 82.9341397,69.6317851 82.4988313,69.6317851 L82.4988313,69.6317861 Z" id="Path" stroke="#64B1A6" fill="#64B1A6"></path>
                <path d="M19.4699347,69.6317861 C19.0340034,69.6317861 18.6820045,69.2822101 18.6820045,68.8506618 C18.6820045,68.418496 19.0346263,68.0695375 19.4699347,68.0695375 L51.1205383,68.0698474 C51.5555326,68.0698474 51.9075276,68.4195785 51.9075276,68.8509717 C51.9075276,69.2822087 51.5547493,69.6317851 51.1205383,69.6317851 L19.4699347,69.6317861 Z" id="Path" stroke="#64B1A6" fill="#64B1A6"></path>
            </g>
        </g>
    </g>
</svg>