<svg id="Capa_1" data-name="Capa 1" xmlns="http://www.w3.org/2000/svg" viewBox="0 0 1242.43 841.89"><defs><style>.cls-1{fill:#c25131;}.cls-2{fill:#b8dad4;}.cls-3{fill:#18988b;}.cls-4{fill:#64b1a6;}.cls-5{fill:#54565a;}</style></defs><title>Marcas Elever (logo editable) M</title><path class="cls-1" d="M563.85,383.31V352.1a37.33,37.33,0,0,1,11.06-26.53l1.66-1.66a43.94,43.94,0,0,1,30.92-12.72h31.57c10.07,0,19.25,4.77,26.14,12.1a34.36,34.36,0,1,0,48.58-48.57c-7.34-6.89-12.11-16.07-12.11-26.14V212.74c0-10,4.71-19.1,12-25.91a34.36,34.36,0,1,0-48.48-48.66c-6.89,7.33-16.07,12.1-26.13,12.1H602.76c-9.69,0-18.62-4.5-25.14-11.67a34.38,34.38,0,0,0-59,15.73,34.5,34.5,0,0,0,33.67,41.94,34.08,34.08,0,0,0,25.15-11c6.63-7.2,15.54-11.86,25.32-11.86h36.38a34.33,34.33,0,0,1,25.48,11.43,33.7,33.7,0,0,0,2.61,2.6,33.9,33.9,0,0,1,11.34,25.27v34.51c0,10.68-4.89,20.49-12.51,28l-.22.21c-7.68,7.68-17.61,12.72-28.48,12.72H607.3c-11.22,0-22.4-3.93-30.08-12.1a34.36,34.36,0,1,0-48.57,48.57c7.34,6.9,12.11,16.08,12.11,26.14v31.82c0,11.19-3.94,22.35-12.1,30a34.38,34.38,0,0,0,16.14,58.6,34.51,34.51,0,0,0,42-33.66,34.07,34.07,0,0,0-11-25.16C567.73,405,563.85,394.16,563.85,383.31Z"/><path class="cls-2" d="M414.48,265.19a34.46,34.46,0,1,0,34.45,34.45A34.45,34.45,0,0,0,414.48,265.19Z"/><path class="cls-3" d="M828,265.19a34.46,34.46,0,1,0,34.45,34.45A34.45,34.45,0,0,0,828,265.19Z"/><path class="cls-2" d="M770.58,317.49V281.76c0-10.05,4.76-19.21,12.09-26.09a34.38,34.38,0,0,0-16.14-58.61,34.5,34.5,0,0,0-41.95,33.67,34,34,0,0,0,11,25.15c7.19,6.63,11.86,15.54,11.86,25.32v36.38a34.28,34.28,0,0,1-11.44,25.47,35.1,35.1,0,0,0-2.51,2.52A34.33,34.33,0,0,1,708.05,357H671.67c-9.69,0-18.62-4.5-25.14-11.67a34.37,34.37,0,0,0-59,15.71,34.5,34.5,0,0,0,33.66,42A34.09,34.09,0,0,0,646.37,392c6.62-7.2,15.54-11.86,25.32-11.86H708c10.07,0,19.25,4.77,26.14,12.11a34.37,34.37,0,1,0,48.58-48.58C775.35,336.74,770.58,327.56,770.58,317.49Z"/><path class="cls-4" d="M494.94,314.4V283.49a38,38,0,0,1,11-26.76l1.92-1.94a42.28,42.28,0,0,1,30-12.52h32.7c9.8,0,18.79,4.58,25.41,11.8a34.46,34.46,0,1,0,.06-46.75c-6.63,7.19-15.54,11.86-25.32,11.86h-36.3c-10.06,0-19.24-4.77-26.13-12.1a34.36,34.36,0,1,0-48.58,48.57c7.34,6.9,12.11,16.07,12.11,26.14V313.6c0,11.2-3.93,22.36-12.09,30a34.37,34.37,0,0,0,16.15,58.6,34.5,34.5,0,0,0,41.94-33.67,34.09,34.09,0,0,0-11-25.15C498.82,336.05,494.94,325.25,494.94,314.4Z"/><path class="cls-5" d="M133.86,605.37V616H82.75V547.84h49.74v10.61H95.41v17.71h32.9v10.42H95.41v18.79ZM88.49,529H102.8L116,542.29H105.43Z"/><path class="cls-5" d="M169.1,547.84h12.65v57.43h35.63V616H169.1Z"/><path class="cls-5" d="M299.64,605.37V616H248.53V547.84h49.74v10.61H261.18v17.71h32.91v10.42H261.18v18.79Z"/><path class="cls-5" d="M396.2,547.84,366.51,616H354.05l-29.79-68.14H338l22.68,52.56,22.88-52.56Z"/><path class="cls-5" d="M475.64,605.37V616H424.53V547.84h49.74v10.61H437.18v17.71h32.91v10.42H437.18v18.79Z"/><path class="cls-5" d="M555.46,616l-13.92-20a24.44,24.44,0,0,1-2.63.1H523.53V616H510.87V547.84h28a37.69,37.69,0,0,1,15.43,2.92,22.37,22.37,0,0,1,10.07,8.37,23.39,23.39,0,0,1,3.51,13,23.1,23.1,0,0,1-3.75,13.24,22.34,22.34,0,0,1-10.76,8.27L569.09,616Zm-4.58-53.93q-4.27-3.51-12.55-3.5h-14.8V585.7h14.8q8.26,0,12.55-3.55t4.29-10.07Q555.17,565.56,550.88,562.05Z"/><path class="cls-5" d="M654.31,612.43a33.33,33.33,0,0,1-13-12.51,36.52,36.52,0,0,1,0-36,33.76,33.76,0,0,1,13.1-12.51,38.35,38.35,0,0,1,18.64-4.53,39,39,0,0,1,15.28,2.92A31.18,31.18,0,0,1,700,558.25l-8.17,7.69a23.87,23.87,0,0,0-18.21-8A25.42,25.42,0,0,0,661.08,561a22.06,22.06,0,0,0-8.67,8.52,26.12,26.12,0,0,0,0,24.72,22.13,22.13,0,0,0,8.67,8.52,25.52,25.52,0,0,0,12.55,3.06,23.75,23.75,0,0,0,18.21-8.07l8.17,7.78A31.12,31.12,0,0,1,688.28,614,39.18,39.18,0,0,1,673,617,38.45,38.45,0,0,1,654.31,612.43Z"/><path class="cls-5" d="M784.41,605.37V616H733.3V547.84h49.75v10.61H746v17.71h32.9v10.42H746v18.79Z"/><path class="cls-5" d="M880.2,547.84V616H869.78l-37.57-46.14V616H819.65V547.84h10.42L867.64,594V547.84Z"/><path class="cls-5" d="M933.45,558.55H910.86V547.84h57.82v10.71H946.1V616H933.45Z"/><path class="cls-5" d="M1050.45,605.37V616h-51.1V547.84h49.74v10.61H1012v17.71h32.91v10.42H1012v18.79Z"/><path class="cls-5" d="M1130.28,616l-13.92-20a24.44,24.44,0,0,1-2.63.1h-15.38V616h-12.66V547.84h28a37.69,37.69,0,0,1,15.43,2.92,22.37,22.37,0,0,1,10.07,8.37,23.39,23.39,0,0,1,3.51,13,23.1,23.1,0,0,1-3.75,13.24,22.34,22.34,0,0,1-10.76,8.27L1143.91,616Zm-4.58-53.93q-4.28-3.51-12.56-3.5h-14.79V585.7h14.79q8.28,0,12.56-3.55t4.28-10.07Q1130,565.56,1125.7,562.05Z"/><path class="cls-5" d="M190.05,711.77a20.29,20.29,0,0,1-8-7.63,22.27,22.27,0,0,1,0-22,20.58,20.58,0,0,1,8-7.63,23.38,23.38,0,0,1,11.36-2.76,23.82,23.82,0,0,1,9.32,1.78,19,19,0,0,1,7.13,5.17l-5,4.69a14.53,14.53,0,0,0-11.1-4.87,15.55,15.55,0,0,0-7.66,1.87,13.58,13.58,0,0,0-5.28,5.19,15.91,15.91,0,0,0,0,15.08,13.44,13.44,0,0,0,5.28,5.19,15.55,15.55,0,0,0,7.66,1.87,14.48,14.48,0,0,0,11.1-4.92l5,4.74a19,19,0,0,1-7.16,5.17,23.86,23.86,0,0,1-9.35,1.78A23.38,23.38,0,0,1,190.05,711.77Z"/><path class="cls-5" d="M245.46,711.77a20.39,20.39,0,0,1-8-7.66,22.12,22.12,0,0,1,0-21.9,20.39,20.39,0,0,1,8-7.66,25.15,25.15,0,0,1,22.91,0,20.57,20.57,0,0,1,8,7.63,22.17,22.17,0,0,1,0,22,20.49,20.49,0,0,1-8,7.63,25.15,25.15,0,0,1-22.91,0Zm18.93-5.88a13.37,13.37,0,0,0,5.22-5.22,15.79,15.79,0,0,0,0-15,13.5,13.5,0,0,0-5.22-5.22,15.89,15.89,0,0,0-15,0,13.63,13.63,0,0,0-5.22,5.22,15.79,15.79,0,0,0,0,15,13.5,13.5,0,0,0,5.22,5.22,15.9,15.9,0,0,0,15,0Z"/><path class="cls-5" d="M360,672.39l-13.77,41.55H338l-10.26-30.75-10.45,30.75H309l-13.77-41.55h8L313.6,704l10.74-31.57h7.13L342,704.14l10.63-31.75Z"/><path class="cls-5" d="M386.85,711.77a20.39,20.39,0,0,1-8-7.66,22.06,22.06,0,0,1,0-21.9,20.39,20.39,0,0,1,8-7.66,25.15,25.15,0,0,1,22.91,0,20.57,20.57,0,0,1,8,7.63,22.17,22.17,0,0,1,0,22,20.49,20.49,0,0,1-8,7.63,25.15,25.15,0,0,1-22.91,0Zm18.93-5.88a13.37,13.37,0,0,0,5.22-5.22,15.79,15.79,0,0,0,0-15,13.5,13.5,0,0,0-5.22-5.22,15.89,15.89,0,0,0-15,0,13.63,13.63,0,0,0-5.22,5.22,15.79,15.79,0,0,0,0,15,13.5,13.5,0,0,0,5.22,5.22,15.89,15.89,0,0,0,15,0Z"/><path class="cls-5" d="M469.11,713.94l-8.48-12.17a15.77,15.77,0,0,1-1.61.06h-9.37v12.11h-7.72V672.39H459a23,23,0,0,1,9.41,1.78,13.72,13.72,0,0,1,6.15,5.1,14.34,14.34,0,0,1,2.13,7.9,14.12,14.12,0,0,1-2.28,8.07,13.6,13.6,0,0,1-6.56,5l9.55,13.66Zm-2.79-32.89q-2.61-2.13-7.65-2.13h-9v16.56h9c3.36,0,5.91-.73,7.65-2.17a8.48,8.48,0,0,0,0-12.26Z"/><path class="cls-5" d="M512.68,696.54l-6.59,6.77v10.63h-7.71V672.39h7.71v21.3l20.54-21.3h8.67L517.85,691l18.51,23h-9Z"/><path class="cls-5" d="M554.71,672.39h7.71v41.55h-7.71Z"/><path class="cls-5" d="M623.62,672.39v41.55h-6.35L594.36,685.8v28.14H586.7V672.39h6.35L616,700.52V672.39Z"/><path class="cls-5" d="M676.21,692.69h7.3v16.56a23.26,23.26,0,0,1-7.48,3.91,28.71,28.71,0,0,1-8.78,1.37,23.69,23.69,0,0,1-11.46-2.76,20.43,20.43,0,0,1-8-7.63,22.17,22.17,0,0,1,0-22,20.44,20.44,0,0,1,8-7.63,24,24,0,0,1,11.54-2.76,25.35,25.35,0,0,1,9.5,1.72,18.62,18.62,0,0,1,7.18,5l-4.86,4.75a15.61,15.61,0,0,0-11.46-4.75,16.18,16.18,0,0,0-7.81,1.84,13.52,13.52,0,0,0-5.34,5.16,14.93,14.93,0,0,0-1.93,7.6,14.7,14.7,0,0,0,1.93,7.48,13.81,13.81,0,0,0,5.34,5.22,15.64,15.64,0,0,0,7.75,1.9,16.8,16.8,0,0,0,8.55-2.13Z"/><path class="cls-5" d="M744,711.77a20.33,20.33,0,0,1-7.95-7.63,22.27,22.27,0,0,1,0-22,20.62,20.62,0,0,1,8-7.63,23.39,23.39,0,0,1,11.37-2.76,23.85,23.85,0,0,1,9.32,1.78,19,19,0,0,1,7.12,5.17l-5,4.69a14.5,14.5,0,0,0-11.1-4.87,15.48,15.48,0,0,0-7.65,1.87,13.54,13.54,0,0,0-5.29,5.19,15.91,15.91,0,0,0,0,15.08,13.4,13.4,0,0,0,5.29,5.19,15.48,15.48,0,0,0,7.65,1.87,14.45,14.45,0,0,0,11.1-4.92l5,4.74a19,19,0,0,1-7.15,5.17,23.9,23.9,0,0,1-9.35,1.78A23.39,23.39,0,0,1,744,711.77Z"/><path class="cls-5" d="M792.37,672.39h7.71v35h21.73v6.53H792.37Z"/><path class="cls-5" d="M847.87,660.87h8.72L846.26,669h-6.41ZM841,672.39h7.72v41.55H841Z"/><path class="cls-5" d="M909.89,672.39v41.55h-6.35L880.63,685.8v28.14H873V672.39h6.35l22.92,28.13V672.39Z"/><path class="cls-5" d="M934.11,672.39h7.72v41.55h-7.72Z"/><path class="cls-5" d="M974,711.77a20.29,20.29,0,0,1-8-7.63,22.34,22.34,0,0,1,0-22,20.58,20.58,0,0,1,8-7.63,23.38,23.38,0,0,1,11.36-2.76,23.82,23.82,0,0,1,9.32,1.78,19,19,0,0,1,7.13,5.17l-5,4.69a14.53,14.53,0,0,0-11.1-4.87,15.55,15.55,0,0,0-7.66,1.87,13.58,13.58,0,0,0-5.28,5.19,15.91,15.91,0,0,0,0,15.08,13.44,13.44,0,0,0,5.28,5.19,15.55,15.55,0,0,0,7.66,1.87,14.48,14.48,0,0,0,11.1-4.92l5,4.74a19,19,0,0,1-7.16,5.17,23.86,23.86,0,0,1-9.35,1.78A23.38,23.38,0,0,1,974,711.77Z"/><path class="cls-5" d="M1029.38,711.77a20.39,20.39,0,0,1-8-7.66,22.12,22.12,0,0,1,0-21.9,20.39,20.39,0,0,1,8-7.66,25.15,25.15,0,0,1,22.91,0,20.57,20.57,0,0,1,8,7.63,22.17,22.17,0,0,1,0,22,20.49,20.49,0,0,1-8,7.63,25.15,25.15,0,0,1-22.91,0Zm18.93-5.88a13.37,13.37,0,0,0,5.22-5.22,15.79,15.79,0,0,0,0-15,13.5,13.5,0,0,0-5.22-5.22,15.89,15.89,0,0,0-15,0,13.63,13.63,0,0,0-5.22,5.22,15.79,15.79,0,0,0,0,15,13.5,13.5,0,0,0,5.22,5.22,15.9,15.9,0,0,0,15,0Z"/></svg>