<?xml version="1.0" encoding="UTF-8"?>
<svg width="99px" height="99px" viewBox="0 0 99 99" version="1.1" xmlns="http://www.w3.org/2000/svg" xmlns:xlink="http://www.w3.org/1999/xlink">
    <title>Group 21</title>
    <g id="Disseny-v4" stroke="none" stroke-width="1" fill="none" fill-rule="evenodd">
        <g id="Artboard" transform="translate(-558.000000, -1756.000000)">
            <g id="Group-21" transform="translate(558.000000, 1756.000000)">
                <rect id="Rectangle-Copy-2" x="0" y="0" width="99" height="99"></rect>
                <path d="M29.0896098,64.8537002 C29.2600692,65.0898819 29.5092022,65.2604575 29.7976719,65.3391847 L37.4290073,67.372971 C41.5069202,68.4620307 45.6897312,69 49.8856545,69 C54.0684655,69 58.2643888,68.4620307 62.3423017,67.372971 L69.9343003,65.3523059 C70.0916475,65.3260635 70.2489946,65.2735787 70.3932294,65.1817303 C87.0720244,54.7766172 88.514373,44.9357158 87.8849845,39.9890227 C87.2687083,35.1210568 84.3840111,32.1294228 81.8008958,31.3159083 C76.2412975,29.5707885 70.8652708,35.5278141 69.1737892,37.6534488 L62.3423017,35.842723 C54.1995881,33.6777246 45.5848332,33.6777246 37.4421196,35.842723 L30.7810914,37.6140852 C29.0502731,35.4622081 23.7004709,29.5970309 18.1933216,31.3290295 C15.6102064,32.142544 12.7255091,35.1341781 12.1092329,40.0021439 C11.5060689,44.883231 12.9090808,54.566678 29.0896098,64.8537002 Z M81.0272725,33.8351791 C82.8105398,34.3993907 84.8429402,36.8005707 85.288757,40.330174 C85.7083493,43.6629592 85.0789609,52.2048616 70.9570566,61.6914906 L70.9570566,39.6478715 C72.6485382,37.404146 77.224717,32.6280285 81.0272725,33.8351791 Z M38.1108448,38.3751149 C45.8208538,36.3282074 53.9635674,36.3282074 61.6735764,38.3751149 L68.3346046,40.1464772 L68.3346046,63.0560956 L61.6735764,64.8274578 C53.9635674,66.8743653 45.8208538,66.8743653 38.1108448,64.8274578 L31.4498167,63.0560956 L31.4498167,40.1464772 L38.1108448,38.3751149 Z M14.7185727,40.330174 C15.1643895,36.8005707 17.1967898,34.3993907 18.9800572,33.8351791 C22.6252656,32.6936345 26.9916482,37.0367523 28.8273646,39.3723262 L28.8273646,61.5471574 C14.9283688,52.1130132 14.2989803,43.6367168 14.7185727,40.330174 Z" id="Shape" fill="#64B1A6" fill-rule="nonzero"></path>
                <path d="M40.3333333,49 L57.6666667,49 C58.4,49 59,48.325 59,47.5 C59,46.675 58.4,46 57.6666667,46 L40.3333333,46 C39.6,46 39,46.675 39,47.5 C39,48.325 39.6,49 40.3333333,49 Z" id="Path" fill="#64B1A6" fill-rule="nonzero"></path>
                <path d="M40.3333333,57 L57.6666667,57 C58.4,57 59,56.325 59,55.5 C59,54.675 58.4,54 57.6666667,54 L40.3333333,54 C39.6,54 39,54.675 39,55.5 C39,56.325 39.6,57 40.3333333,57 Z" id="Path" fill="#64B1A6" fill-rule="nonzero"></path>
            </g>
        </g>
    </g>
</svg>