<?xml version="1.0" encoding="UTF-8"?>
<svg width="99px" height="99px" viewBox="0 0 99 99" version="1.1" xmlns="http://www.w3.org/2000/svg" xmlns:xlink="http://www.w3.org/1999/xlink">
    <title>Group 10</title>
    <g id="Disseny-v4" stroke="none" stroke-width="1" fill="none" fill-rule="evenodd">
        <g id="Artboard" transform="translate(-760.000000, -1756.000000)">
            <g id="Group-10" transform="translate(760.000000, 1756.000000)">
                <rect id="Rectangle-Copy-3" x="0" y="0" width="99" height="99"></rect>
                <path d="M69.365625,48.4545455 C69.365625,44.9344943 72.1668937,42.1136364 75.6625,42.1136364 C79.0578253,42.1136364 81.8375,44.9564855 81.8375,48.4545455 L81.8375,60.4818182 C81.8375,64.0018693 79.0362313,66.8227273 75.540625,66.8227273 L23.621875,66.8227273 C20.1262686,66.8227273 17.325,64.0018693 17.325,60.4818182 L17.325,48.4545455 C17.325,44.9344943 20.1262686,42.1136364 23.621875,42.1136364 C27.1174813,42.1136364 29.91875,44.9344943 29.91875,48.4545455 L29.91875,54.2636364 L69.365625,54.2636364 L69.365625,48.4545455 Z M70.990625,48.4545455 L70.990625,55.0818182 C70.990625,55.5336875 70.6268563,55.9 70.178125,55.9 L29.10625,55.9 C28.6575187,55.9 28.29375,55.5336875 28.29375,55.0818182 L28.29375,48.4545455 C28.29375,45.8382329 26.2200187,43.75 23.621875,43.75 C21.0237314,43.75 18.95,45.8382329 18.95,48.4545455 L18.95,60.4818182 C18.95,63.0981307 21.0237314,65.1863636 23.621875,65.1863636 L75.540625,65.1863636 C78.1387687,65.1863636 80.2125,63.0981307 80.2125,60.4818182 L80.2125,48.4545455 C80.2125,45.854594 78.1546748,43.75 75.6625,43.75 C73.0643563,43.75 70.990625,45.8382329 70.990625,48.4545455 Z" id="Shape" stroke="#64B1A6" stroke-width="0.5" fill="#64B1A6" fill-rule="nonzero"></path>
                <path d="M24.434375,42.9318182 L24.434375,40.4772727 C24.434375,34.9155057 28.9456063,30.3727273 34.46875,30.3727273 L64.69375,30.3727273 C70.2168937,30.3727273 74.728125,34.9155057 74.728125,40.4772727 L74.728125,42.9318182 C74.728125,43.3836875 75.0918937,43.75 75.540625,43.75 C75.9893563,43.75 76.353125,43.3836875 76.353125,42.9318182 L76.353125,40.4772727 C76.353125,34.011767 71.1143563,28.7363636 64.69375,28.7363636 L34.46875,28.7363636 C28.0481437,28.7363636 22.809375,34.011767 22.809375,40.4772727 L22.809375,42.9318182 C22.809375,43.3836875 23.1731436,43.75 23.621875,43.75 C24.0706064,43.75 24.434375,43.3836875 24.434375,42.9318182 Z" id="Path" stroke="#64B1A6" stroke-width="0.5" fill="#64B1A6" fill-rule="nonzero"></path>
                <path d="M50.3125,54.9590909 L50.3125,29.5545455 C50.3125,29.1026761 49.9487313,28.7363636 49.5,28.7363636 C49.0512687,28.7363636 48.6875,29.1026761 48.6875,29.5545455 L48.6875,54.9590909 C48.6875,55.4109602 49.0512687,55.7772727 49.5,55.7772727 C49.9487313,55.7772727 50.3125,55.4109602 50.3125,54.9590909 Z M73.875,71.65 L73.875,66.25 C73.875,65.7981307 73.5112313,65.4318182 73.0625,65.4318182 C72.6137687,65.4318182 72.25,65.7981307 72.25,66.25 L72.25,71.65 C72.25,72.1018693 72.6137687,72.4681818 73.0625,72.4681818 C73.5112313,72.4681818 73.875,72.1018693 73.875,71.65 Z M25.9375,71.65 L25.9375,66.25 C25.9375,65.7981307 25.5737313,65.4318182 25.125,65.4318182 C24.6762686,65.4318182 24.3125,65.7981307 24.3125,66.25 L24.3125,71.65 C24.3125,72.1018693 24.6762686,72.4681818 25.125,72.4681818 C25.5737313,72.4681818 25.9375,72.1018693 25.9375,71.65 Z" id="Shape" stroke="#64B1A6" stroke-width="0.5" fill="#64B1A6" fill-rule="nonzero"></path>
            </g>
        </g>
    </g>
</svg>